<svg xmlns="http://www.w3.org/2000/svg" viewBox="-24 -24 1248.0 388.0" width="1248" height="388"><style>
text { font-family: "Courier Prime", "Courier New", Courier, monospace; fill: #9b978c; font-size: 15px; }
.ink { fill: #ece7db; } .sig { fill: #e8b45a; }
.title { font-size: 15px; letter-spacing: .08em; text-transform: uppercase; }
.axis { stroke: #ece7db; stroke-width: 1; } .grid { stroke: #3a3b3f; stroke-width: 1; }
</style><rect x="-24" y="-24" width="1248.0" height="388.0" fill="#1f2023"/><text x="70" y="26" class="title">Average total time</text><line x1="70" y1="241.62634190233484" x2="540" y2="241.62634190233484" class="grid"></line><text x="60" y="246.62634190233484" text-anchor="end">100</text><line x1="70" y1="154.85647570194703" x2="540" y2="154.85647570194703" class="grid"></line><text x="60" y="159.85647570194703" text-anchor="end">105</text><line x1="70" y1="68.0866095015592" x2="540" y2="68.0866095015592" class="grid"></line><text x="60" y="73.0866095015592" text-anchor="end">110</text><rect x="289" y="40" width="32" height="240" fill="#e2a43a" opacity=".12"></rect><polyline points="70,80.00000000000006 128.75,165.62630008060134 187.5,184.67336562813125 246.25,194.35431650617056 305,232.19751288057088 363.75,236.37863481367071 422.5,239.99999999999991 481.25,239.40125580614455 540,239.40125580614455" fill="none" stroke="#ece7db" stroke-width="2"></polyline><circle cx="70" cy="80.00000000000006" r="4" fill="#ece7db"></circle><text x="70" y="304" text-anchor="middle" class="">0</text><text x="70" y="66.00000000000006" text-anchor="middle" class="ink">109</text><circle cx="128.75" cy="165.62630008060134" r="4" fill="#ece7db"></circle><text x="128.75" y="304" text-anchor="middle" class="">10</text><circle cx="187.5" cy="184.67336562813125" r="4" fill="#ece7db"></circle><text x="187.5" y="304" text-anchor="middle" class="">20</text><circle cx="246.25" cy="194.35431650617056" r="4" fill="#ece7db"></circle><text x="246.25" y="304" text-anchor="middle" class="">40</text><circle cx="305" cy="232.19751288057088" r="6" fill="#e2a43a"></circle><text x="305" y="304" text-anchor="middle" class="sig">80</text><text x="305" y="218.19751288057088" text-anchor="middle" class="sig">101</text><circle cx="363.75" cy="236.37863481367071" r="4" fill="#ece7db"></circle><text x="363.75" y="304" text-anchor="middle" class="">120</text><circle cx="422.5" cy="239.99999999999991" r="4" fill="#ece7db"></circle><text x="422.5" y="304" text-anchor="middle" class="">160</text><circle cx="481.25" cy="239.40125580614455" r="4" fill="#ece7db"></circle><text x="481.25" y="304" text-anchor="middle" class="">320</text><circle cx="540" cy="239.40125580614455" r="4" fill="#ece7db"></circle><text x="540" y="304" text-anchor="middle" class="">no limit</text><text x="540" y="225.40125580614455" text-anchor="middle" class="ink">100</text><text x="540" y="330" text-anchor="end">allowed delay K →</text><text x="690" y="26" class="title">Longest wait</text><line x1="690" y1="244.739336492891" x2="1160" y2="244.739336492891" class="grid"></line><text x="680" y="249.739336492891" text-anchor="end">180</text><line x1="690" y1="149.95260663507108" x2="1160" y2="149.95260663507108" class="grid"></line><text x="680" y="154.95260663507108" text-anchor="end">190</text><line x1="690" y1="55.16587677725113" x2="1160" y2="55.16587677725113" class="grid"></line><text x="680" y="60.16587677725113" text-anchor="end">200</text><rect x="909" y="40" width="32" height="240" fill="#e2a43a" opacity=".12"></rect><polyline points="690,80 748.75,198.29383886255917 807.5,240 866.25,223.31753554502376 925,227.48815165876783 983.75,165.4976303317534 1042.5,120.56872037914695 1101.25,86.63507109004729 1160,86.63507109004729" fill="none" stroke="#ece7db" stroke-width="2"></polyline><circle cx="690" cy="80" r="4" fill="#ece7db"></circle><text x="690" y="304" text-anchor="middle" class="">0</text><text x="690" y="66" text-anchor="middle" class="ink">197</text><circle cx="748.75" cy="198.29383886255917" r="4" fill="#ece7db"></circle><text x="748.75" y="304" text-anchor="middle" class="">10</text><circle cx="807.5" cy="240" r="4" fill="#ece7db"></circle><text x="807.5" y="304" text-anchor="middle" class="">20</text><circle cx="866.25" cy="223.31753554502376" r="4" fill="#ece7db"></circle><text x="866.25" y="304" text-anchor="middle" class="">40</text><circle cx="925" cy="227.48815165876783" r="6" fill="#e2a43a"></circle><text x="925" y="304" text-anchor="middle" class="sig">80</text><text x="925" y="213.48815165876783" text-anchor="middle" class="sig">182</text><circle cx="983.75" cy="165.4976303317534" r="4" fill="#ece7db"></circle><text x="983.75" y="304" text-anchor="middle" class="">120</text><circle cx="1042.5" cy="120.56872037914695" r="4" fill="#ece7db"></circle><text x="1042.5" y="304" text-anchor="middle" class="">160</text><circle cx="1101.25" cy="86.63507109004729" r="4" fill="#ece7db"></circle><text x="1101.25" y="304" text-anchor="middle" class="">320</text><circle cx="1160" cy="86.63507109004729" r="4" fill="#ece7db"></circle><text x="1160" y="304" text-anchor="middle" class="">no limit</text><text x="1160" y="72.63507109004729" text-anchor="middle" class="ink">197</text><text x="1160" y="330" text-anchor="end">allowed delay K →</text></svg>